<mxfile host="app.diagrams.net" modified="2021-02-10T13:18:12.773Z" agent="5.0 (Windows NT 10.0; Win64; x64) AppleWebKit/537.36 (KHTML, like Gecko) Chrome/88.0.4324.146 Safari/537.36" etag="btQJTGUl8d9IIR3E57BD" version="14.3.0" type="github">
  <diagram id="3f_s-jwOlLiw3ekH4LFg" name="Page-1">
    <mxGraphModel dx="652" dy="391" grid="1" gridSize="10" guides="1" tooltips="1" connect="1" arrows="1" fold="1" page="1" pageScale="1" pageWidth="1200" pageHeight="1600" math="0" shadow="0">
      <root>
        <mxCell id="0" />
        <mxCell id="1" parent="0" />
        <mxCell id="AeqN3ozY2u7MsNfRUxQ7-1" value="" style="rounded=0;whiteSpace=wrap;html=1;fillColor=#dae8fc;strokeColor=#6c8ebf;opacity=80;" vertex="1" parent="1">
          <mxGeometry x="199" y="322" width="370" height="140" as="geometry" />
        </mxCell>
        <mxCell id="AeqN3ozY2u7MsNfRUxQ7-3" value="" style="rounded=0;html=1;jettySize=auto;orthogonalLoop=1;fontSize=11;endArrow=block;endFill=0;endSize=8;strokeWidth=1;shadow=0;labelBackgroundColor=none;edgeStyle=orthogonalEdgeStyle;exitX=0.5;exitY=0;exitDx=0;exitDy=0;entryX=0.5;entryY=1;entryDx=0;entryDy=0;" edge="1" parent="1" source="AeqN3ozY2u7MsNfRUxQ7-5" target="AeqN3ozY2u7MsNfRUxQ7-34">
          <mxGeometry x="0.3333" y="20" relative="1" as="geometry">
            <mxPoint as="offset" />
            <mxPoint x="240" y="409.03" as="sourcePoint" />
            <mxPoint x="240.0000000000001" y="416.5" as="targetPoint" />
            <Array as="points" />
          </mxGeometry>
        </mxCell>
        <mxCell id="AeqN3ozY2u7MsNfRUxQ7-5" value="&lt;font style=&quot;line-height: 0%&quot;&gt;&lt;sub&gt;&lt;span style=&quot;font-size: 13px&quot;&gt;Tu&lt;/span&gt;&lt;br&gt;&lt;/sub&gt;&lt;/font&gt;" style="ellipse;whiteSpace=wrap;html=1;fillColor=#fff2cc;strokeColor=#d6b656;" vertex="1" parent="1">
          <mxGeometry x="200" y="480" width="80" height="40" as="geometry" />
        </mxCell>
        <mxCell id="AeqN3ozY2u7MsNfRUxQ7-6" value="" style="rounded=0;html=1;jettySize=auto;orthogonalLoop=1;fontSize=11;endArrow=block;endFill=0;endSize=8;strokeWidth=1;shadow=0;labelBackgroundColor=none;edgeStyle=orthogonalEdgeStyle;exitX=0.5;exitY=0;exitDx=0;exitDy=0;entryX=0.5;entryY=1;entryDx=0;entryDy=0;" edge="1" parent="1" source="AeqN3ozY2u7MsNfRUxQ7-38">
          <mxGeometry x="0.3333" y="20" relative="1" as="geometry">
            <mxPoint as="offset" />
            <mxPoint x="343.0000000000001" y="232" as="sourcePoint" />
            <mxPoint x="594" y="230" as="targetPoint" />
            <Array as="points">
              <mxPoint x="640" y="340" />
              <mxPoint x="594" y="340" />
            </Array>
          </mxGeometry>
        </mxCell>
        <mxCell id="AeqN3ozY2u7MsNfRUxQ7-8" value="&lt;span style=&quot;font-size: 13px&quot;&gt;instantiated&lt;br&gt;states&lt;br&gt;&lt;/span&gt;" style="rounded=1;whiteSpace=wrap;html=1;fontSize=12;glass=0;strokeWidth=1;shadow=0;fillColor=#fff2cc;strokeColor=#d6b656;" vertex="1" parent="1">
          <mxGeometry x="80" y="377.25" width="100" height="40" as="geometry" />
        </mxCell>
        <mxCell id="AeqN3ozY2u7MsNfRUxQ7-10" value="Encoder - LSTM" style="text;html=1;strokeColor=none;fillColor=none;align=center;verticalAlign=middle;whiteSpace=wrap;rounded=0;opacity=80;fontStyle=1" vertex="1" parent="1">
          <mxGeometry x="208" y="340" width="120" height="20" as="geometry" />
        </mxCell>
        <mxCell id="AeqN3ozY2u7MsNfRUxQ7-13" value="" style="edgeStyle=orthogonalEdgeStyle;rounded=0;html=1;jettySize=auto;orthogonalLoop=1;fontSize=11;endArrow=block;endFill=0;endSize=8;strokeWidth=1;shadow=0;labelBackgroundColor=none;entryX=0;entryY=0.5;entryDx=0;entryDy=0;exitX=1;exitY=0.5;exitDx=0;exitDy=0;" edge="1" parent="1" source="AeqN3ozY2u7MsNfRUxQ7-8" target="AeqN3ozY2u7MsNfRUxQ7-34">
          <mxGeometry y="10" relative="1" as="geometry">
            <mxPoint as="offset" />
            <mxPoint x="255.0000000000033" y="401.5" as="sourcePoint" />
            <mxPoint x="845" y="303" as="targetPoint" />
            <Array as="points" />
          </mxGeometry>
        </mxCell>
        <mxCell id="AeqN3ozY2u7MsNfRUxQ7-14" value="" style="rounded=0;html=1;jettySize=auto;orthogonalLoop=1;fontSize=11;endArrow=block;endFill=0;endSize=8;strokeWidth=1;shadow=0;labelBackgroundColor=none;edgeStyle=orthogonalEdgeStyle;exitX=0.5;exitY=0;exitDx=0;exitDy=0;" edge="1" parent="1">
          <mxGeometry x="0.3333" y="20" relative="1" as="geometry">
            <mxPoint as="offset" />
            <mxPoint x="525" y="303" as="sourcePoint" />
            <mxPoint x="525" y="265" as="targetPoint" />
            <Array as="points">
              <mxPoint x="525" y="265" />
            </Array>
          </mxGeometry>
        </mxCell>
        <mxCell id="AeqN3ozY2u7MsNfRUxQ7-15" value="Forget Gate" style="rounded=1;whiteSpace=wrap;html=1;fillColor=#f8cecc;strokeColor=#b85450;fontSize=10;" vertex="1" parent="1">
          <mxGeometry x="505" y="233" width="40" height="31.5" as="geometry" />
        </mxCell>
        <mxCell id="AeqN3ozY2u7MsNfRUxQ7-16" value="" style="rounded=0;html=1;jettySize=auto;orthogonalLoop=1;fontSize=11;endArrow=block;endFill=0;endSize=8;strokeWidth=1;shadow=0;labelBackgroundColor=none;edgeStyle=orthogonalEdgeStyle;exitX=0.5;exitY=0;exitDx=0;exitDy=0;" edge="1" parent="1">
          <mxGeometry x="0.3333" y="20" relative="1" as="geometry">
            <mxPoint as="offset" />
            <mxPoint x="600" y="303" as="sourcePoint" />
            <mxPoint x="600" y="265" as="targetPoint" />
            <Array as="points">
              <mxPoint x="600" y="265" />
            </Array>
          </mxGeometry>
        </mxCell>
        <mxCell id="AeqN3ozY2u7MsNfRUxQ7-17" value="Update&lt;br style=&quot;font-size: 10px;&quot;&gt;Gate" style="rounded=1;whiteSpace=wrap;html=1;fillColor=#d5e8d4;strokeColor=#82b366;fontSize=10;" vertex="1" parent="1">
          <mxGeometry x="580" y="233" width="40" height="31.5" as="geometry" />
        </mxCell>
        <mxCell id="AeqN3ozY2u7MsNfRUxQ7-20" value="tanh" style="ellipse;whiteSpace=wrap;html=1;aspect=fixed;opacity=80;fontSize=9;direction=south;" vertex="1" parent="1">
          <mxGeometry x="645.5" y="235" width="29" height="30" as="geometry" />
        </mxCell>
        <mxCell id="AeqN3ozY2u7MsNfRUxQ7-21" value="" style="rounded=0;html=1;jettySize=auto;orthogonalLoop=1;fontSize=11;endArrow=block;endFill=0;endSize=8;strokeWidth=1;shadow=0;labelBackgroundColor=none;edgeStyle=orthogonalEdgeStyle;exitX=0.5;exitY=0;exitDx=0;exitDy=0;" edge="1" parent="1">
          <mxGeometry x="0.3333" y="20" relative="1" as="geometry">
            <mxPoint as="offset" />
            <mxPoint x="659.8" y="302.5" as="sourcePoint" />
            <mxPoint x="659.8299999999999" y="264.5" as="targetPoint" />
            <Array as="points">
              <mxPoint x="659.8299999999999" y="264.5" />
            </Array>
          </mxGeometry>
        </mxCell>
        <mxCell id="AeqN3ozY2u7MsNfRUxQ7-22" value="" style="rounded=0;html=1;jettySize=auto;orthogonalLoop=1;fontSize=11;endArrow=block;endFill=0;endSize=8;strokeWidth=1;shadow=0;labelBackgroundColor=none;edgeStyle=orthogonalEdgeStyle;exitX=0.5;exitY=0;exitDx=0;exitDy=0;entryX=1;entryY=0.5;entryDx=0;entryDy=0;" edge="1" parent="1" target="AeqN3ozY2u7MsNfRUxQ7-24">
          <mxGeometry x="0.3333" y="20" relative="1" as="geometry">
            <mxPoint as="offset" />
            <mxPoint x="659.77" y="235.5" as="sourcePoint" />
            <mxPoint x="659.77" y="197.5" as="targetPoint" />
            <Array as="points">
              <mxPoint x="660" y="195" />
            </Array>
          </mxGeometry>
        </mxCell>
        <mxCell id="AeqN3ozY2u7MsNfRUxQ7-23" value="c&lt;sup&gt;~&lt;/sup&gt;&lt;sub&gt;t&lt;/sub&gt;" style="text;html=1;strokeColor=none;fillColor=none;align=center;verticalAlign=middle;whiteSpace=wrap;rounded=0;fontSize=10;fontStyle=1" vertex="1" parent="1">
          <mxGeometry x="650" y="210" width="40" height="20" as="geometry" />
        </mxCell>
        <mxCell id="AeqN3ozY2u7MsNfRUxQ7-24" value="element wise mult" style="ellipse;whiteSpace=wrap;html=1;aspect=fixed;opacity=80;fontSize=6;" vertex="1" parent="1">
          <mxGeometry x="585" y="180" width="30" height="30" as="geometry" />
        </mxCell>
        <mxCell id="AeqN3ozY2u7MsNfRUxQ7-25" value="" style="rounded=0;html=1;jettySize=auto;orthogonalLoop=1;fontSize=11;endArrow=block;endFill=0;endSize=8;strokeWidth=1;shadow=0;labelBackgroundColor=none;edgeStyle=orthogonalEdgeStyle;entryX=0.5;entryY=1;entryDx=0;entryDy=0;" edge="1" parent="1" target="AeqN3ozY2u7MsNfRUxQ7-24">
          <mxGeometry x="0.3333" y="20" relative="1" as="geometry">
            <mxPoint as="offset" />
            <mxPoint x="600" y="233" as="sourcePoint" />
            <mxPoint x="610" y="275" as="targetPoint" />
            <Array as="points">
              <mxPoint x="600" y="233" />
            </Array>
          </mxGeometry>
        </mxCell>
        <mxCell id="AeqN3ozY2u7MsNfRUxQ7-34" value="Output&lt;br style=&quot;font-size: 10px&quot;&gt;Gate" style="rounded=1;whiteSpace=wrap;html=1;fillColor=#f5f5f5;strokeColor=#666666;fontSize=10;fontColor=#333333;" vertex="1" parent="1">
          <mxGeometry x="220" y="381.5" width="40" height="31.5" as="geometry" />
        </mxCell>
        <mxCell id="AeqN3ozY2u7MsNfRUxQ7-46" value="&lt;font style=&quot;line-height: 0%&quot;&gt;&lt;sub&gt;&lt;span style=&quot;font-size: 13px&quot;&gt;es&lt;/span&gt;&lt;br&gt;&lt;/sub&gt;&lt;/font&gt;" style="ellipse;whiteSpace=wrap;html=1;fillColor=#fff2cc;strokeColor=#d6b656;" vertex="1" parent="1">
          <mxGeometry x="297" y="480" width="80" height="40" as="geometry" />
        </mxCell>
        <mxCell id="AeqN3ozY2u7MsNfRUxQ7-47" value="&lt;font style=&quot;line-height: 0%&quot;&gt;&lt;sub&gt;&lt;span style=&quot;font-size: 13px&quot;&gt;tres&lt;/span&gt;&lt;br&gt;&lt;/sub&gt;&lt;/font&gt;" style="ellipse;whiteSpace=wrap;html=1;fillColor=#fff2cc;strokeColor=#d6b656;" vertex="1" parent="1">
          <mxGeometry x="393" y="480" width="80" height="40" as="geometry" />
        </mxCell>
        <mxCell id="AeqN3ozY2u7MsNfRUxQ7-48" value="&lt;font style=&quot;line-height: 0%&quot;&gt;&lt;sub&gt;&lt;span style=&quot;font-size: 13px&quot;&gt;intelligent&lt;/span&gt;&lt;br&gt;&lt;/sub&gt;&lt;/font&gt;" style="ellipse;whiteSpace=wrap;html=1;fillColor=#fff2cc;strokeColor=#d6b656;" vertex="1" parent="1">
          <mxGeometry x="490" y="480" width="80" height="40" as="geometry" />
        </mxCell>
        <mxCell id="AeqN3ozY2u7MsNfRUxQ7-50" value="Output&lt;br style=&quot;font-size: 10px&quot;&gt;Gate" style="rounded=1;whiteSpace=wrap;html=1;fillColor=#f5f5f5;strokeColor=#666666;fontSize=10;fontColor=#333333;" vertex="1" parent="1">
          <mxGeometry x="317" y="381.5" width="40" height="31.5" as="geometry" />
        </mxCell>
        <mxCell id="AeqN3ozY2u7MsNfRUxQ7-51" value="Output&lt;br style=&quot;font-size: 10px&quot;&gt;Gate" style="rounded=1;whiteSpace=wrap;html=1;fillColor=#f5f5f5;strokeColor=#666666;fontSize=10;fontColor=#333333;" vertex="1" parent="1">
          <mxGeometry x="414" y="381.5" width="40" height="31.5" as="geometry" />
        </mxCell>
        <mxCell id="AeqN3ozY2u7MsNfRUxQ7-52" value="Output&lt;br style=&quot;font-size: 10px&quot;&gt;Gate" style="rounded=1;whiteSpace=wrap;html=1;fillColor=#f5f5f5;strokeColor=#666666;fontSize=10;fontColor=#333333;" vertex="1" parent="1">
          <mxGeometry x="511" y="381.5" width="40" height="31.5" as="geometry" />
        </mxCell>
        <mxCell id="AeqN3ozY2u7MsNfRUxQ7-53" value="" style="rounded=0;html=1;jettySize=auto;orthogonalLoop=1;fontSize=11;endArrow=block;endFill=0;endSize=8;strokeWidth=1;shadow=0;labelBackgroundColor=none;edgeStyle=orthogonalEdgeStyle;exitX=0.5;exitY=0;exitDx=0;exitDy=0;entryX=0.5;entryY=1;entryDx=0;entryDy=0;" edge="1" parent="1">
          <mxGeometry x="0.3333" y="20" relative="1" as="geometry">
            <mxPoint as="offset" />
            <mxPoint x="336.5800000000001" y="480.0000000000001" as="sourcePoint" />
            <mxPoint x="336.57999999999987" y="413" as="targetPoint" />
            <Array as="points" />
          </mxGeometry>
        </mxCell>
        <mxCell id="AeqN3ozY2u7MsNfRUxQ7-54" value="" style="rounded=0;html=1;jettySize=auto;orthogonalLoop=1;fontSize=11;endArrow=block;endFill=0;endSize=8;strokeWidth=1;shadow=0;labelBackgroundColor=none;edgeStyle=orthogonalEdgeStyle;exitX=0.5;exitY=0;exitDx=0;exitDy=0;entryX=0.5;entryY=1;entryDx=0;entryDy=0;" edge="1" parent="1">
          <mxGeometry x="0.3333" y="20" relative="1" as="geometry">
            <mxPoint as="offset" />
            <mxPoint x="433.71000000000015" y="480.0000000000001" as="sourcePoint" />
            <mxPoint x="433.7099999999999" y="413" as="targetPoint" />
            <Array as="points" />
          </mxGeometry>
        </mxCell>
        <mxCell id="AeqN3ozY2u7MsNfRUxQ7-55" value="" style="rounded=0;html=1;jettySize=auto;orthogonalLoop=1;fontSize=11;endArrow=block;endFill=0;endSize=8;strokeWidth=1;shadow=0;labelBackgroundColor=none;edgeStyle=orthogonalEdgeStyle;exitX=0.5;exitY=0;exitDx=0;exitDy=0;entryX=0.5;entryY=1;entryDx=0;entryDy=0;" edge="1" parent="1">
          <mxGeometry x="0.3333" y="20" relative="1" as="geometry">
            <mxPoint as="offset" />
            <mxPoint x="530.71" y="480.0000000000001" as="sourcePoint" />
            <mxPoint x="530.7099999999998" y="413" as="targetPoint" />
            <Array as="points" />
          </mxGeometry>
        </mxCell>
        <mxCell id="AeqN3ozY2u7MsNfRUxQ7-56" value="" style="edgeStyle=orthogonalEdgeStyle;rounded=0;html=1;jettySize=auto;orthogonalLoop=1;fontSize=11;endArrow=block;endFill=0;endSize=8;strokeWidth=1;shadow=0;labelBackgroundColor=none;entryX=0;entryY=0.5;entryDx=0;entryDy=0;" edge="1" parent="1" source="AeqN3ozY2u7MsNfRUxQ7-34" target="AeqN3ozY2u7MsNfRUxQ7-50">
          <mxGeometry y="10" relative="1" as="geometry">
            <mxPoint as="offset" />
            <mxPoint x="260" y="397" as="sourcePoint" />
            <mxPoint x="299.9999999999999" y="396.96" as="targetPoint" />
            <Array as="points" />
          </mxGeometry>
        </mxCell>
        <mxCell id="AeqN3ozY2u7MsNfRUxQ7-58" value="" style="edgeStyle=orthogonalEdgeStyle;rounded=0;html=1;jettySize=auto;orthogonalLoop=1;fontSize=11;endArrow=block;endFill=0;endSize=8;strokeWidth=1;shadow=0;labelBackgroundColor=none;entryX=0;entryY=0.5;entryDx=0;entryDy=0;" edge="1" parent="1">
          <mxGeometry y="10" relative="1" as="geometry">
            <mxPoint as="offset" />
            <mxPoint x="357" y="396.96714285714285" as="sourcePoint" />
            <mxPoint x="414" y="396.96" as="targetPoint" />
            <Array as="points" />
          </mxGeometry>
        </mxCell>
        <mxCell id="AeqN3ozY2u7MsNfRUxQ7-59" value="" style="edgeStyle=orthogonalEdgeStyle;rounded=0;html=1;jettySize=auto;orthogonalLoop=1;fontSize=11;endArrow=block;endFill=0;endSize=8;strokeWidth=1;shadow=0;labelBackgroundColor=none;entryX=0;entryY=0.5;entryDx=0;entryDy=0;" edge="1" parent="1">
          <mxGeometry y="10" relative="1" as="geometry">
            <mxPoint as="offset" />
            <mxPoint x="454" y="396.96714285714285" as="sourcePoint" />
            <mxPoint x="511" y="396.96" as="targetPoint" />
            <Array as="points" />
          </mxGeometry>
        </mxCell>
      </root>
    </mxGraphModel>
  </diagram>
</mxfile>
